<svg width="651" height="429" fill="none" xmlns="http://www.w3.org/2000/svg"><path d="M4 138v258.5c37.36-3.833 113.735-28.9 120.354-98.5S82.481 194 57.407 185.5V422C106.301 402.833 174 349.357 174 279.5c0-75-78.23-136-170-141.5zm281-1l86.5 107L458 137M290 426.276V212.087l43.31 53.107m0 0l38.962 47.776 40.598-47.776m-79.56 0v161.082m124.69 0V212.087l-45.13 53.107m0 0v161.082M631.65 171.92c-11.65-10.42-37.639-36.137-79.413-33.754-41.773 2.382-63.458 35.409-69.622 51.128-4.714 19.69-4.46 63.14 38.619 83.393 43.079 20.252 69.497 39.389 76.766 49.813 11.157 16 16 59-32.5 69-44.737 9.224-69-27-72.007-31.184m107.698-169.533c-8.191-7.283-25.238-24.025-52.217-16.877s-31.91 28.459-31.004 38.221c-.363 7.115 4.134 23.728 25.021 33.258 26.108 11.914 93.534 46.382 101.714 90.343 8.795 47.272-13.055 70.983-59.288 83.393-35.417 9.506-54.282 3.294-73.43-2.979C490.774 409.193 478 393.5 475 389.338M167 102.554l47-56.747m0 0L242 12v397M214 45.807V12l-71 85.115m71-51.308V410m-37 12h90m-77-14h67m-93-304h28m-75-8h29" stroke="#000" stroke-width="8"/><path d="M139 99v22m32-15v15m11 0c0 15.464-12.76 28-28.5 28S125 136.464 125 121h57z" stroke="#000" stroke-width="4"/></svg>